# Blender 5.0.0
# www.blender.org
mtllib BARREL.mtl
o Cylinder
v -0.000000 -0.068524 -0.786780
v -0.000000 1.931476 -0.680805
v 0.462457 -0.068524 -0.636518
v 0.400167 1.931476 -0.550783
v 0.748272 -0.068524 -0.243128
v 0.647484 1.931476 -0.210380
v 0.748272 -0.068524 0.243128
v 0.647484 1.931476 0.210380
v 0.462457 -0.068524 0.636518
v 0.400167 1.931476 0.550783
v -0.000000 -0.068524 0.786780
v -0.000000 1.931476 0.680805
v -0.462457 -0.068524 0.636518
v -0.400167 1.931476 0.550783
v -0.748272 -0.068524 0.243128
v -0.647484 1.931476 0.210380
v -0.748272 -0.068524 -0.243128
v -0.647484 1.931476 -0.210380
v -0.462457 -0.068524 -0.636518
v -0.400167 1.931476 -0.550783
v 0.475497 1.931476 -0.654465
v -0.000000 1.931476 -0.808964
v 0.769370 1.931476 -0.249984
v 0.769370 1.931476 0.249983
v 0.475497 1.931476 0.654465
v -0.000000 1.931476 0.808964
v -0.475497 1.931476 0.654465
v -0.769370 1.931476 0.249983
v -0.769370 1.931476 -0.249984
v -0.475497 1.931476 -0.654465
v 0.494666 1.640197 -0.680850
v 0.000000 1.640197 -0.841576
v 0.800387 1.640197 -0.260061
v 0.800387 1.640197 0.260061
v 0.494666 1.640197 0.680850
v 0.000000 1.640197 0.841576
v -0.494666 1.640197 0.680850
v -0.800387 1.640197 0.260061
v -0.800387 1.640197 -0.260061
v -0.494666 1.640197 -0.680850
v -0.000000 1.330414 -0.981201
v 0.000000 1.196811 -1.000000
v 0.587785 1.196811 -0.809017
v 0.576735 1.330414 -0.793808
v 0.951057 1.196811 -0.309017
v 0.933177 1.330414 -0.303208
v 0.951057 1.196811 0.309017
v 0.933177 1.330414 0.303208
v 0.587785 1.196811 0.809017
v 0.576735 1.330414 0.793808
v 0.000000 1.196811 1.000000
v -0.000000 1.330414 0.981201
v -0.587785 1.196811 0.809017
v -0.576735 1.330414 0.793808
v -0.951057 1.196811 0.309017
v -0.933177 1.330414 0.303208
v -0.951057 1.196811 -0.309017
v -0.933177 1.330414 -0.303208
v -0.587785 1.196811 -0.809017
v -0.576735 1.330414 -0.793808
v 0.000000 0.655574 -1.000000
v -0.000000 0.543197 -0.982427
v 0.577456 0.543197 -0.794800
v 0.587785 0.655574 -0.809017
v 0.934343 0.543197 -0.303587
v 0.951057 0.655574 -0.309017
v 0.934343 0.543197 0.303587
v 0.951057 0.655574 0.309017
v 0.577456 0.543197 0.794800
v 0.587785 0.655574 0.809017
v -0.000000 0.543197 0.982427
v 0.000000 0.655574 1.000000
v -0.577456 0.543197 0.794800
v -0.587785 0.655574 0.809017
v -0.934343 0.543197 0.303587
v -0.951057 0.655574 0.309017
v -0.934343 0.543197 -0.303587
v -0.951057 0.655574 -0.309017
v -0.577456 0.543197 -0.794800
v -0.587785 0.655574 -0.809017
vn 0.7163 -0.4648 -0.5204
vn -0.0000 -1.0000 -0.0000
vn -0.0000 1.0000 -0.0000
vn -0.7163 -0.4648 -0.5204
vn -0.2736 -0.4648 0.8421
vn 0.8854 -0.4648 -0.0000
vn -0.2736 -0.4648 -0.8421
vn -0.7163 -0.4648 0.5204
vn 0.7163 -0.4648 0.5204
vn 0.2736 -0.4648 -0.8421
vn -0.8854 -0.4648 -0.0000
vn 0.2736 -0.4648 0.8421
vn -0.2981 0.2629 -0.9176
vn 0.2981 0.2629 -0.9176
vn 0.7805 0.2629 -0.5671
vn 0.9648 0.2629 -0.0000
vn 0.7805 0.2629 0.5671
vn 0.2981 0.2629 0.9176
vn -0.2981 0.2629 0.9176
vn -0.7805 0.2629 0.5671
vn -0.9648 0.2629 -0.0000
vn -0.7805 0.2629 -0.5671
vn 0.2956 -0.2910 -0.9099
vn 0.3090 -0.0000 -0.9511
vn -0.2956 -0.2910 -0.9099
vn -0.3090 -0.0000 -0.9511
vn 0.7740 -0.2910 -0.5623
vn 0.8090 -0.0000 -0.5878
vn 0.9567 -0.2910 -0.0000
vn 1.0000 -0.0000 -0.0000
vn 0.7740 -0.2910 0.5623
vn 0.8090 -0.0000 0.5878
vn 0.2956 -0.2910 0.9099
vn 0.3090 -0.0000 0.9511
vn -0.2956 -0.2910 0.9099
vn -0.3090 -0.0000 0.9511
vn -0.7740 -0.2910 0.5623
vn -0.8090 -0.0000 0.5878
vn -0.9567 -0.2910 -0.0000
vn -1.0000 -0.0000 -0.0000
vn -0.7740 -0.2910 -0.5623
vn -0.8090 -0.0000 -0.5878
vt 0.057907 0.187585
vt 0.131280 0.086596
vt 0.750000 0.490000
vt 0.891068 0.444164
vt 0.978254 0.324164
vt 0.978254 0.175836
vt 0.891068 0.055836
vt 0.750000 0.010000
vt 0.608932 0.055836
vt 0.521746 0.175836
vt 0.521746 0.324164
vt 0.608932 0.444164
vt 0.250000 0.451978
vt 0.368720 0.413404
vt 0.391068 0.444164
vt 0.250000 0.490000
vt 0.442093 0.312415
vt 0.478254 0.324164
vt 0.442093 0.187585
vt 0.478254 0.175836
vt 0.368720 0.086596
vt 0.391068 0.055836
vt 0.250000 0.048022
vt 0.250000 0.010000
vt 0.108932 0.055836
vt 0.021746 0.175836
vt 0.057907 0.312415
vt 0.021746 0.324164
vt 0.131280 0.413404
vt 0.108932 0.444164
vt 0.100000 0.849735
vt 0.100000 1.000000
vt -0.000000 1.000000
vt -0.000000 0.849735
vt 1.000000 0.849735
vt 1.000000 1.000000
vt 0.900000 1.000000
vt 0.900000 0.849735
vt 0.800000 1.000000
vt 0.800000 0.849735
vt 0.700000 1.000000
vt 0.700000 0.849735
vt 0.600000 1.000000
vt 0.600000 0.849735
vt 0.500000 1.000000
vt 0.500000 0.849735
vt 0.400000 1.000000
vt 0.400000 0.849735
vt 0.300000 1.000000
vt 0.300000 0.849735
vt 0.200000 1.000000
vt 0.200000 0.849735
vt 1.000000 0.500000
vt 1.000000 0.652930
vt 0.900000 0.652930
vt 0.900000 0.500000
vt 1.000000 0.681024
vt 1.000000 0.816334
vt 0.900000 0.816334
vt 0.900000 0.681024
vt 0.100000 0.500000
vt 0.100000 0.652930
vt -0.000000 0.652930
vt -0.000000 0.500000
vt 0.100000 0.681024
vt 0.100000 0.816334
vt -0.000000 0.816334
vt -0.000000 0.681024
vt 0.800000 0.652930
vt 0.800000 0.500000
vt 0.800000 0.816334
vt 0.800000 0.681024
vt 0.700000 0.652930
vt 0.700000 0.500000
vt 0.700000 0.816334
vt 0.700000 0.681024
vt 0.600000 0.652930
vt 0.600000 0.500000
vt 0.600000 0.816334
vt 0.600000 0.681024
vt 0.500000 0.652930
vt 0.500000 0.500000
vt 0.500000 0.816334
vt 0.500000 0.681024
vt 0.400000 0.652930
vt 0.400000 0.500000
vt 0.400000 0.816334
vt 0.400000 0.681024
vt 0.300000 0.652930
vt 0.300000 0.500000
vt 0.300000 0.816334
vt 0.300000 0.681024
vt 0.200000 0.652930
vt 0.200000 0.500000
vt 0.200000 0.816334
vt 0.200000 0.681024
s 0
usemtl Material.003
f 16/1/1 14/2/1 37/2/1 38/1/1
f 1/3/2 3/4/2 5/5/2 7/6/2 9/7/2 11/8/2 13/9/2 15/10/2 17/11/2 19/12/2
f 2/13/3 4/14/3 21/15/3 22/16/3
f 4/14/3 6/17/3 23/18/3 21/15/3
f 6/17/3 8/19/3 24/20/3 23/18/3
f 8/19/3 10/21/3 25/22/3 24/20/3
f 10/21/3 12/23/3 26/24/3 25/22/3
f 12/23/3 14/2/3 27/25/3 26/24/3
f 14/2/3 16/1/3 28/26/3 27/25/3
f 16/1/3 18/27/3 29/28/3 28/26/3
f 18/27/3 20/29/3 30/30/3 29/28/3
f 20/29/3 2/13/3 22/16/3 30/30/3
f 10/21/4 8/19/4 34/19/4 35/21/4
f 4/14/5 2/13/5 32/13/5 31/14/5
f 18/27/6 16/1/6 38/1/6 39/27/6
f 12/23/7 10/21/7 35/21/7 36/23/7
f 6/17/8 4/14/8 31/14/8 33/17/8
f 20/29/9 18/27/9 39/27/9 40/29/9
f 14/2/10 12/23/10 36/23/10 37/2/10
f 8/19/11 6/17/11 33/17/11 34/19/11
f 2/13/12 20/29/12 40/29/12 32/13/12
f 60/31/13 30/32/13 22/33/13 41/34/13
f 41/35/14 22/36/14 21/37/14 44/38/14
f 44/38/15 21/37/15 23/39/15 46/40/15
f 46/40/16 23/39/16 24/41/16 48/42/16
f 48/42/17 24/41/17 25/43/17 50/44/17
f 50/44/18 25/43/18 26/45/18 52/46/18
f 52/46/19 26/45/19 27/47/19 54/48/19
f 54/48/20 27/47/20 28/49/20 56/50/20
f 56/50/21 28/49/21 29/51/21 58/52/21
f 58/52/22 29/51/22 30/32/22 60/31/22
f 1/53/23 62/54/23 63/55/23 3/56/23
f 61/57/24 42/58/24 43/59/24 64/60/24
f 19/61/25 79/62/25 62/63/25 1/64/25
f 80/65/26 59/66/26 42/67/26 61/68/26
f 3/56/27 63/55/27 65/69/27 5/70/27
f 64/60/28 43/59/28 45/71/28 66/72/28
f 5/70/29 65/69/29 67/73/29 7/74/29
f 66/72/30 45/71/30 47/75/30 68/76/30
f 7/74/31 67/73/31 69/77/31 9/78/31
f 68/76/32 47/75/32 49/79/32 70/80/32
f 9/78/33 69/77/33 71/81/33 11/82/33
f 70/80/34 49/79/34 51/83/34 72/84/34
f 11/82/35 71/81/35 73/85/35 13/86/35
f 72/84/36 51/83/36 53/87/36 74/88/36
f 13/86/37 73/85/37 75/89/37 15/90/37
f 74/88/38 53/87/38 55/91/38 76/92/38
f 15/90/39 75/89/39 77/93/39 17/94/39
f 76/92/40 55/91/40 57/95/40 78/96/40
f 17/94/41 77/93/41 79/62/41 19/61/41
f 78/96/42 57/95/42 59/66/42 80/65/42
o Cylinder.001
v -0.604144 0.651221 0.831533
v -0.593131 1.334339 0.816375
v -0.604181 1.200737 0.831584
v -0.593815 0.538845 0.817316
v -0.959706 1.334339 0.311828
v -0.977525 0.651221 0.317617
v -0.977586 1.200737 0.317637
v -0.960812 0.538845 0.312187
v -0.959706 1.334339 -0.311828
v -0.977525 0.651221 -0.317617
v -0.977586 1.200737 -0.317637
v -0.960812 0.538845 -0.312187
v 0.000000 1.200736 -1.027894
v -0.000000 0.538845 -1.010258
v -0.000000 1.334339 -1.009095
v 0.000000 0.651221 -1.027831
v -0.593131 1.334339 -0.816375
v -0.604144 0.651221 -0.831533
v -0.604181 1.200736 -0.831584
v -0.593815 0.538845 -0.817316
v -0.000000 1.330414 -0.981201
v 0.000000 1.196811 -1.000000
v 0.587785 1.196811 -0.809017
v 0.576735 1.330414 -0.793808
v 0.951057 1.196811 -0.309017
v 0.933177 1.330414 -0.303208
v 0.951057 1.196811 0.309017
v 0.933177 1.330414 0.303208
v 0.587785 1.196811 0.809017
v 0.576735 1.330414 0.793808
v 0.000000 1.196811 1.000000
v -0.000000 1.330414 0.981201
v -0.587785 1.196811 0.809017
v -0.576735 1.330414 0.793808
v -0.951057 1.196811 0.309017
v -0.933177 1.330414 0.303208
v -0.951057 1.196811 -0.309017
v -0.933177 1.330414 -0.303208
v -0.587785 1.196811 -0.809017
v -0.576735 1.330414 -0.793808
v 0.000000 1.200736 1.027894
v -0.000000 1.334339 1.009095
v 0.604181 1.200737 0.831584
v 0.593131 1.334339 0.816375
v 0.977586 1.200737 0.317637
v 0.959706 1.334339 0.311828
v 0.977586 1.200737 -0.317637
v 0.959706 1.334339 -0.311828
v 0.604181 1.200736 -0.831584
v 0.593131 1.334339 -0.816375
v 0.000000 0.655574 -1.000000
v -0.000000 0.543197 -0.982427
v 0.577456 0.543197 -0.794800
v 0.587785 0.655574 -0.809017
v 0.934343 0.543197 -0.303587
v 0.951057 0.655574 -0.309017
v 0.934343 0.543197 0.303587
v 0.951057 0.655574 0.309017
v 0.577456 0.543197 0.794800
v 0.587785 0.655574 0.809017
v -0.000000 0.543197 0.982427
v 0.000000 0.655574 1.000000
v -0.577456 0.543197 0.794800
v -0.587785 0.655574 0.809017
v -0.934343 0.543197 0.303587
v -0.951057 0.655574 0.309017
v -0.934343 0.543197 -0.303587
v -0.951057 0.655574 -0.309017
v -0.577456 0.543197 -0.794800
v -0.587785 0.655574 -0.809017
v -0.000000 0.538845 1.010258
v 0.000000 0.651221 1.027831
v 0.593815 0.538845 0.817316
v 0.604144 0.651221 0.831533
v 0.960812 0.538845 0.312187
v 0.977525 0.651221 0.317617
v 0.960812 0.538845 -0.312187
v 0.977525 0.651221 -0.317617
v 0.593815 0.538845 -0.817316
v 0.604144 0.651221 -0.831533
vn -0.1184 0.9892 -0.0860
vn 0.1184 -0.9892 -0.0860
vn -0.1184 -0.9892 0.0860
vn 0.1184 0.9892 -0.0860
vn 0.0452 -0.9892 0.1392
vn 0.1464 -0.9892 -0.0000
vn 0.3063 0.1326 -0.9427
vn 0.9912 0.1326 -0.0000
vn 0.3063 0.1326 0.9427
vn -0.3063 0.1326 0.9427
vn -0.8002 -0.1471 -0.5814
vn -0.0452 0.9892 -0.1392
vn -0.8002 -0.1471 0.5814
vn 0.8019 0.1326 -0.5826
vn -0.0501 0.9868 -0.1543
vn 0.8019 0.1326 0.5826
vn -0.1622 0.9868 -0.0000
vn -0.8019 0.1326 0.5826
vn -0.0501 -0.9868 0.1543
vn -0.9912 0.1326 -0.0000
vn 0.1313 -0.9867 0.0954
vn -0.8019 0.1326 -0.5826
vn 0.3057 -0.1471 -0.9407
vn -0.3063 0.1326 -0.9427
vn 0.9891 -0.1471 -0.0000
vn 0.1184 0.9892 0.0860
vn 0.3057 -0.1471 0.9407
vn -0.1184 0.9892 0.0860
vn -0.9891 -0.1471 -0.0000
vn -0.0452 -0.9892 -0.1392
vn -0.1464 -0.9892 -0.0000
vn 0.0452 0.9892 0.1392
vn -0.1464 0.9892 -0.0000
vn 0.1464 0.9892 -0.0000
vn -0.0452 -0.9892 0.1392
vn 0.0452 -0.9892 -0.1392
vn 0.0452 0.9892 -0.1392
vn 0.1184 -0.9892 0.0860
vn -0.1184 -0.9892 -0.0860
vn -0.0452 0.9892 0.1392
vn 0.1622 0.9868 -0.0000
vn 0.0501 -0.9868 -0.1543
vn -0.0501 0.9868 0.1543
vn 0.0501 0.9868 -0.1543
vn 0.8002 -0.1471 -0.5814
vn 0.8002 -0.1471 0.5814
vn -0.3057 -0.1471 0.9407
vn -0.1313 -0.9867 -0.0954
vn -0.3057 -0.1471 -0.9407
vn 0.1313 0.9868 0.0954
vn -0.1313 0.9868 -0.0954
vn -0.1313 -0.9867 0.0954
vn 0.1313 -0.9867 -0.0954
vn 0.1313 0.9868 -0.0954
vn -0.1313 0.9868 0.0954
vn -0.0501 -0.9868 -0.1543
vn 0.0501 -0.9868 0.1543
vn 0.0501 0.9868 0.1543
vn -0.1622 -0.9868 -0.0000
vn 0.1622 -0.9868 -0.0000
vt 0.700000 0.849735
vt 0.600000 0.849735
vt 0.800000 0.816334
vt 0.900000 0.816334
vt 0.300000 0.816334
vt 0.400000 0.816334
vt 0.400000 0.849735
vt 0.300000 0.849735
vt 0.500000 0.816334
vt 0.600000 0.816334
vt 0.700000 0.816334
vt 1.000000 0.849735
vt 0.900000 0.849735
vt 1.000000 0.816334
vt 0.800000 0.849735
vt 0.500000 0.849735
vt 0.200000 0.681024
vt 0.100000 0.681024
vt 0.100000 0.652930
vt 0.200000 0.652930
vt 0.400000 0.681024
vt 0.300000 0.681024
vt 0.300000 0.652930
vt 0.400000 0.652930
vt -0.000000 0.681024
vt 0.900000 0.652930
vt 1.000000 0.652930
vt 0.200000 0.849735
vt 0.200000 0.816334
vt 0.100000 0.849735
vt 0.100000 0.816334
vt 1.000000 0.681024
vt 0.900000 0.681024
vt -0.000000 0.849735
vt -0.000000 0.816334
vt 0.800000 0.681024
vt 0.700000 0.681024
vt 0.700000 0.652930
vt 0.800000 0.652930
vt 0.600000 0.681024
vt 0.500000 0.681024
vt 0.500000 0.652930
vt 0.600000 0.652930
vt -0.000000 0.652930
s 0
usemtl Material.002
f 108/97/43 110/98/43 124/98/43 126/97/43
f 105/99/44 103/100/44 129/100/44 127/99/44
f 115/101/45 113/102/45 83/102/45 87/101/45
f 114/103/46 116/104/46 85/104/46 82/103/46
f 111/105/47 109/106/47 123/106/47 121/105/47
f 107/107/48 105/99/48 127/99/48 125/107/48
f 95/108/49 130/109/49 129/100/49 93/110/49
f 128/111/50 126/97/50 125/107/50 127/99/50
f 124/98/51 122/112/51 121/105/51 123/106/51
f 122/112/52 82/103/52 83/102/52 121/105/52
f 90/113/53 98/114/53 100/115/53 92/116/53
f 110/98/54 112/112/54 122/112/54 124/98/54
f 81/117/55 86/118/55 88/119/55 84/120/55
f 130/109/56 128/111/56 127/99/56 129/100/56
f 150/114/57 131/121/57 96/121/57 98/114/57
f 126/97/58 124/98/58 123/106/58 125/107/58
f 146/118/59 148/113/59 90/113/59 86/118/59
f 82/103/60 85/104/60 87/101/60 83/102/60
f 133/122/61 132/123/61 94/123/61 159/122/61
f 85/104/62 89/124/62 91/125/62 87/101/62
f 149/115/63 147/116/63 92/116/63 100/115/63
f 89/124/64 97/126/64 99/127/64 91/125/64
f 96/128/65 160/129/65 159/122/65 94/123/65
f 97/126/66 95/130/66 93/131/66 99/127/66
f 158/132/67 156/133/67 155/134/67 157/135/67
f 118/124/68 120/126/68 97/126/68 89/124/68
f 154/136/69 152/137/69 151/138/69 153/139/69
f 104/109/70 106/111/70 128/111/70 130/109/70
f 86/118/71 90/113/71 92/116/71 88/119/71
f 102/131/72 119/127/72 99/127/72 93/131/72
f 117/125/73 115/101/73 87/101/73 91/125/73
f 120/126/74 101/130/74 95/130/74 97/126/74
f 106/111/75 108/97/75 126/97/75 128/111/75
f 116/104/76 118/124/76 89/124/76 85/104/76
f 113/102/77 111/105/77 121/105/77 83/102/77
f 103/100/78 102/110/78 93/110/78 129/100/78
f 112/112/79 114/103/79 82/103/79 122/112/79
f 109/106/80 107/107/80 125/107/80 123/106/80
f 119/127/81 117/125/81 91/125/81 99/127/81
f 101/108/82 104/109/82 130/109/82 95/108/82
f 136/132/83 138/133/83 156/133/83 158/132/83
f 143/120/84 141/138/84 151/138/84 84/120/84
f 142/137/85 144/117/85 81/117/85 152/137/85
f 131/128/86 134/129/86 160/129/86 96/128/86
f 160/129/87 158/132/87 157/135/87 159/122/87
f 156/133/88 154/136/88 153/139/88 155/134/88
f 152/137/89 81/117/89 84/120/89 151/138/89
f 139/139/90 137/134/90 155/134/90 153/139/90
f 98/114/91 96/121/91 94/140/91 100/115/91
f 138/133/92 140/136/92 154/136/92 156/133/92
f 148/113/93 150/114/93 98/114/93 90/113/93
f 135/135/94 133/122/94 159/122/94 157/135/94
f 145/119/95 143/120/95 84/120/95 88/119/95
f 134/129/96 136/132/96 158/132/96 160/129/96
f 144/117/97 146/118/97 86/118/97 81/117/97
f 141/138/98 139/139/98 153/139/98 151/138/98
f 132/140/99 149/115/99 100/115/99 94/140/99
f 140/136/100 142/137/100 152/137/100 154/136/100
f 137/134/101 135/135/101 157/135/101 155/134/101
f 147/116/102 145/119/102 88/119/102 92/116/102
o Cylinder.002
v 0.494666 1.644511 -0.675211
v 0.000000 1.644511 -0.835938
v 0.800387 1.644511 -0.254423
v 0.800387 1.644511 0.265700
v 0.494666 1.644511 0.686488
v 0.000000 1.644511 0.847215
v -0.494666 1.644511 0.686488
v -0.800387 1.644511 0.265700
v -0.800387 1.644511 -0.254423
v -0.494666 1.644511 -0.675211
vn -0.0000 1.0000 -0.0000
vt 0.368720 0.413404
vt 0.250000 0.451978
vt 0.131280 0.413404
vt 0.057907 0.312415
vt 0.057907 0.187585
vt 0.131280 0.086596
vt 0.250000 0.048022
vt 0.368720 0.086596
vt 0.442093 0.187585
vt 0.442093 0.312415
s 0
usemtl Material.004
f 161/141/103 162/142/103 170/143/103 169/144/103 168/145/103 167/146/103 166/147/103 165/148/103 164/149/103 163/150/103
